<svg width="32" height="32" viewBox="0 0 32 32" fill="none" xmlns="http://www.w3.org/2000/svg">
<path d="M17 7C16.6044 7 16.2178 7.1173 15.8889 7.33706C15.56 7.55682 15.3036 7.86918 15.1522 8.23463C15.0009 8.60009 14.9613 9.00222 15.0384 9.39018C15.1156 9.77814 15.3061 10.1345 15.5858 10.4142C15.8655 10.6939 16.2219 10.8844 16.6098 10.9616C16.9978 11.0387 17.3999 10.9991 17.7654 10.8478C18.1308 10.6964 18.4432 10.44 18.6629 10.1111C18.8827 9.78224 19 9.39556 19 9C19 8.46957 18.7893 7.96086 18.4142 7.58579C18.0391 7.21071 17.5304 7 17 7ZM17 10C16.8022 10 16.6089 9.94135 16.4444 9.83147C16.28 9.72159 16.1518 9.56541 16.0761 9.38268C16.0004 9.19996 15.9806 8.99889 16.0192 8.80491C16.0578 8.61093 16.153 8.43275 16.2929 8.29289C16.4327 8.15304 16.6109 8.0578 16.8049 8.01921C16.9989 7.98063 17.2 8.00043 17.3827 8.07612C17.5654 8.15181 17.7216 8.27998 17.8315 8.44443C17.9414 8.60888 18 8.80222 18 9C18 9.26522 17.8946 9.51957 17.7071 9.70711C17.5196 9.89464 17.2652 10 17 10Z" fill="currentColor" />
<path d="M21.5 9.5C21.2033 9.5 20.9133 9.58797 20.6666 9.7528C20.42 9.91762 20.2277 10.1519 20.1142 10.426C20.0007 10.7001 19.9709 11.0017 20.0288 11.2926C20.0867 11.5836 20.2296 11.8509 20.4393 12.0607C20.6491 12.2704 20.9164 12.4133 21.2074 12.4712C21.4983 12.5291 21.7999 12.4994 22.074 12.3858C22.3481 12.2723 22.5824 12.08 22.7472 11.8334C22.912 11.5867 23 11.2967 23 11C23 10.6022 22.842 10.2206 22.5607 9.93934C22.2794 9.65804 21.8978 9.5 21.5 9.5ZM21.5 11.5C21.4011 11.5 21.3044 11.4707 21.2222 11.4157C21.14 11.3608 21.0759 11.2827 21.0381 11.1913C21.0002 11.1 20.9903 10.9994 21.0096 10.9025C21.0289 10.8055 21.0765 10.7164 21.1464 10.6464C21.2164 10.5765 21.3055 10.5289 21.4025 10.5096C21.4994 10.4903 21.6 10.5002 21.6913 10.5381C21.7827 10.5759 21.8608 10.64 21.9157 10.7222C21.9707 10.8044 22 10.9011 22 11C22 11.1326 21.9473 11.2598 21.8536 11.3536C21.7598 11.4473 21.6326 11.5 21.5 11.5Z" fill="currentColor" />
<path d="M21.5 15C21.5 15.2967 21.588 15.5867 21.7528 15.8334C21.9176 16.08 22.1519 16.2723 22.426 16.3858C22.7001 16.4993 23.0017 16.5291 23.2926 16.4712C23.5836 16.4133 23.8509 16.2704 24.0607 16.0607C24.2704 15.8509 24.4133 15.5836 24.4712 15.2926C24.5291 15.0017 24.4993 14.7001 24.3858 14.426C24.2723 14.1519 24.08 13.9176 23.8334 13.7528C23.5867 13.588 23.2967 13.5 23 13.5C22.6022 13.5 22.2206 13.658 21.9393 13.9393C21.658 14.2206 21.5 14.6022 21.5 15ZM23 14.5C23.0989 14.5 23.1956 14.5293 23.2778 14.5843C23.36 14.6392 23.4241 14.7173 23.4619 14.8087C23.4998 14.9 23.5097 15.0006 23.4904 15.0975C23.4711 15.1945 23.4235 15.2836 23.3536 15.3536C23.2836 15.4235 23.1945 15.4711 23.0975 15.4904C23.0006 15.5097 22.9 15.4998 22.8087 15.4619C22.7173 15.4241 22.6392 15.36 22.5843 15.2778C22.5293 15.1956 22.5 15.0989 22.5 15C22.5 14.8674 22.5527 14.7402 22.6464 14.6464C22.7402 14.5527 22.8674 14.5 23 14.5Z" fill="currentColor" />
<path d="M29.5 1H2.5C2.10254 1.00119 1.7217 1.1596 1.44065 1.44065C1.1596 1.7217 1.00119 2.10254 1 2.5V26.5C1.00119 26.8975 1.1596 27.2783 1.44065 27.5593C1.7217 27.8404 2.10254 27.9988 2.5 28H12.065L10.585 30.225C10.5334 30.2991 10.5037 30.3862 10.4993 30.4764C10.4949 30.5666 10.5159 30.6562 10.56 30.735C10.6018 30.8154 10.665 30.8827 10.7427 30.9295C10.8203 30.9762 10.9094 31.0006 11 31H21C21.0906 31.0006 21.1797 30.9762 21.2573 30.9295C21.335 30.8827 21.3982 30.8154 21.44 30.735C21.4841 30.6562 21.5051 30.5666 21.5007 30.4764C21.4963 30.3862 21.4666 30.2991 21.415 30.225L19.935 28H29.5C29.8975 27.9988 30.2783 27.8404 30.5593 27.5593C30.8404 27.2783 30.9988 26.8975 31 26.5V2.5C30.9988 2.10254 30.8404 1.7217 30.5593 1.44065C30.2783 1.1596 29.8975 1.00119 29.5 1ZM20.065 30H11.935L13.27 28H18.73L20.065 30ZM30 26.5C30 26.6326 29.9473 26.7598 29.8536 26.8536C29.7598 26.9473 29.6326 27 29.5 27H2.5C2.36739 27 2.24021 26.9473 2.14645 26.8536C2.05268 26.7598 2 26.6326 2 26.5V25H30V26.5ZM30 24H2V2.5C2 2.36739 2.05268 2.24021 2.14645 2.14645C2.24021 2.05268 2.36739 2 2.5 2H29.5C29.6326 2 29.7598 2.05268 29.8536 2.14645C29.9473 2.24021 30 2.36739 30 2.5V24Z" fill="currentColor" />
<path d="M18.165 18.75L12.665 9.225C12.6322 9.16761 12.5884 9.1173 12.536 9.07696C12.4837 9.03662 12.4238 9.00707 12.36 8.99C12.2317 8.95624 12.0952 8.9742 11.98 9.04L10.25 10.04C10.1353 10.1069 10.0515 10.2163 10.0169 10.3445C9.98229 10.4727 9.99956 10.6094 10.065 10.725L15.565 20.25C15.6335 20.3639 15.7424 20.4478 15.87 20.485C15.9126 20.4949 15.9562 20.4999 16 20.5C16.0873 20.4986 16.173 20.4763 16.25 20.435L17.98 19.435C18.0373 19.4023 18.0875 19.3586 18.1279 19.3065C18.1682 19.2543 18.1979 19.1947 18.2151 19.131C18.2322 19.0673 18.2367 19.0009 18.2281 18.9355C18.2195 18.8701 18.1981 18.8071 18.165 18.75ZM16.185 19.315L11.185 10.655L12.05 10.155L17.05 18.815L16.185 19.315Z" fill="currentColor" />
<path d="M11.6 6.375L11.125 5.555C10.8984 5.16336 10.5702 4.84029 10.175 4.62L8.10999 3.475C8.03415 3.4328 7.94862 3.41107 7.86183 3.41194C7.77504 3.41282 7.68997 3.43628 7.61499 3.48C7.5406 3.52371 7.47859 3.58569 7.43485 3.66006C7.3911 3.73443 7.36705 3.81874 7.36499 3.905L7.32499 6.265C7.31899 6.71726 7.43469 7.16281 7.65999 7.555L8.13499 8.375C8.33431 8.71934 8.66203 8.9706 9.04631 9.0737C9.43059 9.1768 9.84008 9.12333 10.185 8.925L11.05 8.425C11.2208 8.32659 11.3705 8.19548 11.4906 8.03916C11.6107 7.88284 11.6988 7.70439 11.7499 7.514C11.801 7.32361 11.814 7.12502 11.7883 6.92958C11.7626 6.73414 11.6986 6.54569 11.6 6.375ZM10.78 7.255C10.7642 7.31872 10.7357 7.37858 10.6961 7.43099C10.6566 7.48341 10.6069 7.52729 10.55 7.56L9.68499 8.06C9.56942 8.12543 9.43274 8.1427 9.30453 8.10807C9.17632 8.07345 9.06691 7.98971 8.99999 7.875L8.52499 7.055C8.3891 6.81966 8.31995 6.55171 8.32499 6.28L8.34999 4.755L9.68999 5.495C9.92728 5.62649 10.1243 5.82007 10.26 6.055L10.73 6.875C10.7639 6.93154 10.7858 6.99445 10.7944 7.05981C10.803 7.12518 10.7981 7.19161 10.78 7.255Z" fill="currentColor" />
<path d="M14.1665 5.984C15.9415 5.35714 17.8743 5.33721 19.6618 5.92735C21.4493 6.51748 22.9904 7.6843 24.0432 9.24475C25.0961 10.8052 25.6012 12.671 25.4792 14.5495C25.3573 16.4279 24.6152 18.2128 23.3695 19.624C23.181 19.0097 22.8007 18.472 22.2843 18.0898C21.7678 17.7075 21.1425 17.5008 20.5 17.5C20.3674 17.5 20.2402 17.5527 20.1464 17.6464C20.0527 17.7402 20 17.8674 20 18C20 18.1326 20.0527 18.2598 20.1464 18.3536C20.2402 18.4473 20.3674 18.5 20.5 18.5C21.0304 18.5 21.5391 18.7107 21.9142 19.0858C22.2893 19.4609 22.5 19.9696 22.5 20.5C22.5003 20.5475 22.4969 20.595 22.49 20.642C22.475 20.7435 22.4916 20.8471 22.5375 20.9389C22.5835 21.0306 22.6565 21.106 22.7468 21.1548C22.837 21.2036 22.9401 21.2235 23.042 21.2117C23.1439 21.1999 23.2398 21.1571 23.3165 21.089C24.9595 19.6244 26.043 17.6347 26.3818 15.4598C26.7207 13.285 26.2938 11.06 25.1741 9.16497C24.0545 7.26995 22.3115 5.82252 20.2431 5.06998C18.1747 4.31744 15.9091 4.30649 13.8335 5.039C13.7084 5.08316 13.6059 5.17521 13.5487 5.2949C13.4914 5.4146 13.4841 5.55213 13.5282 5.67725C13.5724 5.80236 13.6645 5.90481 13.7842 5.96206C13.9038 6.0193 14.0414 6.02666 14.1665 5.9825V5.984Z" fill="currentColor" />
<path d="M13.1295 19.017C12.3682 18.8131 11.6546 18.4612 11.0293 17.9815C10.404 17.5017 9.8794 16.9035 9.48539 16.221C9.09137 15.5384 8.83568 14.7849 8.73292 14.0036C8.63016 13.2222 8.68235 12.4282 8.8865 11.667C8.90555 11.603 8.91157 11.5358 8.90421 11.4694C8.89685 11.403 8.87627 11.3388 8.84367 11.2805C8.81107 11.2221 8.76712 11.171 8.71441 11.1299C8.66171 11.0889 8.60131 11.0588 8.5368 11.0415C8.47228 11.0242 8.40495 11.02 8.33878 11.0292C8.27262 11.0383 8.20895 11.0606 8.15155 11.0948C8.09415 11.1289 8.04417 11.1743 8.00458 11.2281C7.96498 11.2819 7.93656 11.343 7.921 11.408C7.44264 13.2012 7.69515 15.111 8.62314 16.7183C9.55113 18.3256 11.0788 19.4992 12.871 19.9815C12.913 19.9932 12.9564 19.9994 13 20C13.1213 19.9999 13.2384 19.9558 13.3296 19.8758C13.4207 19.7957 13.4797 19.6853 13.4955 19.565C13.5113 19.4448 13.4828 19.3229 13.4154 19.2221C13.3479 19.1212 13.2462 19.0484 13.129 19.017H13.1295Z" fill="currentColor" />
</svg>
