<svg width="32" height="32" viewBox="0 0 32 32" fill="none" xmlns="http://www.w3.org/2000/svg">
<path d="M29.4194 6.70968H28.9032V3.6129C28.9032 1.62065 27.2821 0 25.2903 0H21.6774V5.67742H24.7742V6.70968H20.6188C20.3525 2.96619 17.2294 0 13.4194 0C9.60929 0 6.48619 2.96619 6.21987 6.70968H2.58065C1.15768 6.70968 0 7.86735 0 9.29032V24.2581C0 25.681 1.15768 26.8387 2.58065 26.8387H13.4194V27.9695L6.19355 29.5179V32H25.8064V29.5179L18.5806 27.9695V26.8387H29.4194C30.8423 26.8387 32 25.681 32 24.2581V9.29032C32 7.86735 30.8423 6.70968 29.4194 6.70968ZM23.7419 4.64516H22.7097V1.03226H23.7419V4.64516ZM13.4194 30.9677H7.22581V30.353L13.4194 29.0261V30.9677ZM25.8064 9.80645V4.64516H24.7742V1.03226H25.2903C26.7133 1.03226 27.871 2.18994 27.871 3.6129V10.8387C27.871 12.2617 26.7133 13.4194 25.2903 13.4194H24.7742V9.80645H25.8064ZM7.22581 7.22581C7.22581 3.81058 10.0041 1.03226 13.4194 1.03226C16.8346 1.03226 19.6129 3.81058 19.6129 7.22581V9.30374C19.3115 9.07561 18.9641 8.90477 18.5806 8.82684V7.74194H18.0645C16.5383 7.74194 15.103 7.14735 14.0237 6.06865L13.4199 5.46374L12.8145 6.06813C11.7352 7.14735 10.3004 7.74194 8.77419 7.74194H8.25806V8.82632C7.87458 8.90477 7.52723 9.0751 7.22581 9.30323V7.22581ZM19.6129 11.3548C19.6129 12.0614 19.1345 12.6524 18.4867 12.8372C18.5466 12.5239 18.5806 12.2013 18.5806 11.871V9.90142C19.1799 10.1151 19.6129 10.6828 19.6129 11.3548ZM19.4994 22.7097H15.423L15.1845 20.8021L17.5484 21.2748V17.872L19.7848 18.2163C21.0431 18.4098 22.1177 19.264 22.5899 20.4454L23.4957 22.7097H20.5523L20.1192 20.544L19.1071 20.7468L19.4994 22.7097ZM16.5161 20.0155L15.0498 19.7223L14.9832 19.1881L15.7775 17.5995L16.5161 17.713V20.0155ZM13.4194 16C11.1427 16 9.29032 14.1476 9.29032 11.871V8.75458C10.8403 8.63794 12.2854 7.99794 13.4194 6.92026C14.5528 7.99845 15.9985 8.63845 17.5484 8.75458V11.871C17.5484 14.1476 15.696 16 13.4194 16ZM14.1326 18.5806H12.7061L11.871 16.9105V16.7943C12.3603 16.9481 12.88 17.0323 13.4194 17.0323C13.9587 17.0323 14.4785 16.9481 14.9677 16.7943V16.9105L14.1326 18.5806ZM14.3835 22.7097H12.4557L12.8428 19.6129H13.9964L14.3835 22.7097ZM6.72 20.544L6.28645 22.7097H3.34297L4.24877 20.4449C4.72103 19.2635 5.79561 18.4093 7.05394 18.2157L9.29032 17.872V21.2748L11.6537 20.8021L11.4152 22.7097H7.33935L7.73213 20.7463L6.72 20.544ZM10.3226 20.0155V17.713L11.0617 17.5995L11.856 19.1881L11.7894 19.7223L10.3226 20.0155ZM8.25806 9.90142V11.871C8.25806 12.2013 8.29213 12.5239 8.352 12.8372C7.70426 12.6524 7.22581 12.0614 7.22581 11.3548C7.22581 10.6828 7.65884 10.1151 8.25806 9.90142ZM1.03226 9.29032C1.03226 8.43664 1.72697 7.74194 2.58065 7.74194H6.19355V11.3548C6.19355 12.7484 7.30581 13.8803 8.688 13.9267C9.13032 14.9404 9.88955 15.7827 10.8387 16.3339V16.5894L6.89652 17.1959C5.27948 17.4446 3.89729 18.543 3.29032 20.0619L2.23123 22.7097H1.03226V9.29032ZM17.5484 30.9677H14.4516V26.8387H17.5484V30.9677ZM24.7742 30.353V30.9677H18.5806V29.0255L24.7742 30.353ZM30.9677 24.2581C30.9677 25.1117 30.273 25.8064 29.4194 25.8064H2.58065C1.72697 25.8064 1.03226 25.1117 1.03226 24.2581V23.7419H30.9677V24.2581ZM30.9677 22.7097H24.6075L23.5484 20.0619C22.9409 18.543 21.5592 17.4446 19.9422 17.1959L16 16.5894V16.3339C16.9497 15.7827 17.7089 14.9404 18.1507 13.9267C19.5329 13.8803 20.6452 12.7484 20.6452 11.3548V7.74194H24.7742V8.77419H21.6774V14.4516H25.2903C27.2821 14.4516 28.9032 12.831 28.9032 10.8387V7.74194H29.4194C30.273 7.74194 30.9677 8.43664 30.9677 9.29032V22.7097ZM23.7419 9.80645V13.4194H22.7097V9.80645H23.7419Z" fill="currentColor" />
<path d="M16 10.3226C16.2851 10.3226 16.5161 10.0915 16.5161 9.80645C16.5161 9.5214 16.2851 9.29032 16 9.29032C15.715 9.29032 15.4839 9.5214 15.4839 9.80645C15.4839 10.0915 15.715 10.3226 16 10.3226Z" fill="currentColor" />
<path d="M10.8387 10.3226C11.1237 10.3226 11.3548 10.0915 11.3548 9.80645C11.3548 9.5214 11.1237 9.29032 10.8387 9.29032C10.5536 9.29032 10.3226 9.5214 10.3226 9.80645C10.3226 10.0915 10.5536 10.3226 10.8387 10.3226Z" fill="currentColor" />
<path d="M15.4839 11.871C15.4839 13.0095 14.5579 13.9355 13.4193 13.9355C12.2808 13.9355 11.3548 13.0095 11.3548 11.871H10.3226C10.3226 13.5788 11.7115 14.9677 13.4193 14.9677C15.1272 14.9677 16.5161 13.5788 16.5161 11.871H15.4839Z" fill="currentColor" />
</svg>
