<svg width="32" height="32" viewBox="0 0 32 32" fill="none" xmlns="http://www.w3.org/2000/svg">
<path d="M8.77419 10.8387C8.77419 11.1237 8.5431 11.3548 8.25806 11.3548C7.97303 11.3548 7.74194 11.1237 7.74194 10.8387C7.74194 10.5537 7.97303 10.3226 8.25806 10.3226C8.5431 10.3226 8.77419 10.5537 8.77419 10.8387Z" fill="currentColor" />
<path d="M13.9355 10.8387C13.9355 11.1237 13.7044 11.3548 13.4194 11.3548C13.1343 11.3548 12.9032 11.1237 12.9032 10.8387C12.9032 10.5537 13.1343 10.3226 13.4194 10.3226C13.7044 10.3226 13.9355 10.5537 13.9355 10.8387Z" fill="currentColor" />
<path d="M12.9032 13.9355H11.871C11.871 14.5048 11.408 14.9677 10.8387 14.9677C10.2694 14.9677 9.80645 14.5048 9.80645 13.9355H8.77419C8.77419 15.0741 9.7001 16 10.8387 16C11.9773 16 12.9032 15.0741 12.9032 13.9355Z" fill="currentColor" />
<path d="M30.4516 19.6129H18.0645C17.7744 19.6129 17.506 19.6981 17.2732 19.8374L13.9355 18.7245V17.6552C15.0761 16.9095 15.9297 15.7646 16.3039 14.4206C17.5824 14.2684 18.5806 13.1898 18.5806 11.871V7.74194C18.5806 3.47303 15.1076 0 10.8387 0C6.56981 0 3.09677 3.47303 3.09677 7.74194V11.871C3.09677 13.1898 4.09501 14.2684 5.37349 14.4206C5.74698 15.7651 6.60131 16.9095 7.74194 17.6552V18.7245L2.47026 20.4821C0.992944 20.9745 0 22.3521 0 23.9098V28.9032H16.6111C16.8248 29.5025 17.3926 29.9355 18.0645 29.9355H21.1613V30.9677H20.129V32H28.3871V30.9677H27.3548V29.9355H30.4516C31.3052 29.9355 32 29.2407 32 28.3871V21.1613C32 20.3077 31.3052 19.6129 30.4516 19.6129ZM17.5484 21.1613C17.5484 20.877 17.7797 20.6452 18.0645 20.6452H30.4516C30.7364 20.6452 30.9677 20.877 30.9677 21.1613V26.8387H17.5484V21.1613ZM16.5161 21.1613V27.871H11.3548V22.9234L13.5134 25.0819L16.3112 20.6048L16.5945 20.6993C16.5481 20.846 16.5161 20.9992 16.5161 21.1613ZM15.3042 20.2689L13.3259 23.4342L11.5685 21.6774L13.5587 19.6872L15.3042 20.2689ZM16.4945 13.3311C16.5053 13.1893 16.5161 13.0476 16.5161 12.9032V10.4176C17.1154 10.6313 17.5484 11.1991 17.5484 11.871C17.5484 12.5507 17.1051 13.1235 16.4945 13.3311ZM10.8387 1.03226C14.5383 1.03226 17.5484 4.04234 17.5484 7.74194V9.81981C17.247 9.59173 16.8997 9.42087 16.5161 9.34299V9.29032C16.5161 8.72102 16.0532 8.25806 15.4839 8.25806H6.19355C5.62424 8.25806 5.16129 8.72102 5.16129 9.29032V9.34249C4.77772 9.42087 4.43044 9.59123 4.12903 9.8193V7.74194C4.12903 4.04234 7.13911 1.03226 10.8387 1.03226ZM4.12903 11.871C4.12903 11.1991 4.562 10.6313 5.16129 10.4176V12.9032C5.16129 13.0476 5.17213 13.1893 5.18296 13.3311C4.57233 13.1235 4.12903 12.5507 4.12903 11.871ZM6.19355 12.9032V9.29032H15.4839V12.9032C15.4839 15.4642 13.4002 17.5484 10.8387 17.5484C8.27722 17.5484 6.19355 15.4642 6.19355 12.9032ZM10.8387 18.5806C11.5675 18.5806 12.2621 18.4378 12.9032 18.1862V18.8831L10.8387 20.9476L8.77419 18.8831V18.1862C9.41532 18.4378 10.1099 18.5806 10.8387 18.5806ZM8.1187 19.6872L10.1089 21.6774L8.35207 23.4342L6.37374 20.2689L8.1187 19.6872ZM2.79688 21.4612L5.36618 20.6048L8.16406 25.0824L10.3226 22.9234V27.871H5.16129V24.2581H4.12903V25.8064H1.03226V23.9098C1.03226 22.7969 1.74143 21.8133 2.79688 21.4612ZM1.03226 26.8387H4.12903V27.871H1.03226V26.8387ZM26.3226 30.9677H22.1935V29.9355H26.3226V30.9677ZM30.4516 28.9032H18.0645C17.7797 28.9032 17.5484 28.6714 17.5484 28.3871V27.871H30.9677V28.3871C30.9677 28.6714 30.7364 28.9032 30.4516 28.9032Z" fill="currentColor" />
<path d="M26.6323 25.7031L29.2475 23.7419L26.6323 21.7807L26.0129 22.6064L27.5267 23.7419L26.0129 24.8775L26.6323 25.7031Z" fill="currentColor" />
<path d="M22.5033 24.8775L20.9894 23.7419L22.5033 22.6064L21.8838 21.7807L19.2686 23.7419L21.8838 25.7031L22.5033 24.8775Z" fill="currentColor" />
<path d="M22.8886 25.6653L24.6762 21.4199L25.628 21.8208L23.8402 26.066L22.8886 25.6653Z" fill="currentColor" />
</svg>
