<svg width="26" height="26" viewBox="0 0 26 26" fill="none" xmlns="http://www.w3.org/2000/svg">
<path d="M2.59999 1.73333V6.06667H3.46666V1.73333C3.46666 1.25461 3.8546 0.866667 4.33332 0.866667H21.6667C22.1454 0.866667 22.5333 1.25461 22.5333 1.73333H23.4C23.4 0.7761 22.6239 0 21.6667 0H4.33332C3.37609 0 2.59999 0.7761 2.59999 1.73333Z" fill="currentColor" />
<path d="M1.73333 26H21.6667C22.6239 26 23.4 25.2239 23.4 24.2667V22.5333H22.5333V24.2667C22.5333 24.7454 22.1454 25.1333 21.6667 25.1333C21.1879 25.1333 20.8 24.7454 20.8 24.2667V22.9667C20.8 22.7273 20.6061 22.5333 20.3667 22.5333H3.46667V13.8667H2.6V22.5333H0.433333C0.193917 22.5333 0 22.7273 0 22.9667V24.2667C0 25.2239 0.7761 26 1.73333 26ZM0.866667 23.4H19.9333V24.2667C19.9331 24.5712 20.0131 24.8701 20.1661 25.1333H1.73333C1.25461 25.1333 0.866667 24.7454 0.866667 24.2667V23.4Z" fill="currentColor" />
<path d="M0.433333 13H9.1C9.33942 13 9.53333 12.8061 9.53333 12.5667V7.36667C9.53333 7.12725 9.33942 6.93333 9.1 6.93333H0.433333C0.193917 6.93333 0 7.12725 0 7.36667V12.5667C0 12.8061 0.193917 13 0.433333 13ZM0.866667 7.8H8.66667V12.1333H0.866667V7.8Z" fill="currentColor" />
<path d="M2.72697 8.79363L1.86031 9.6603C1.6912 9.82962 1.6912 10.1037 1.86031 10.273L2.72697 11.1397L3.33971 10.527L2.77941 9.96667L3.33971 9.40637L2.72697 8.79363Z" fill="currentColor" />
<path d="M6.80637 8.79363L6.19363 9.40637L6.75393 9.96667L6.19363 10.527L6.80637 11.1397L7.67303 10.273C7.84214 10.1037 7.84214 9.82962 7.67303 9.6603L6.80637 8.79363Z" fill="currentColor" />
<path d="M3.92189 11.1296L4.78899 8.5293L5.61146 8.8036L4.74392 11.4037L3.92189 11.1296Z" fill="currentColor" />
<path d="M25.5667 2.6H10.8333C10.5939 2.6 10.4 2.79392 10.4 3.03333V11.7C10.4 11.9394 10.5939 12.1333 10.8333 12.1333H25.5667C25.8061 12.1333 26 11.9394 26 11.7V3.03333C26 2.79392 25.8061 2.6 25.5667 2.6ZM25.1333 11.2667H11.2667V10.2119L15.158 7.87713L18.9517 10.3307C19.0821 10.4146 19.2475 10.4227 19.3851 10.3515L22.5223 8.72646L25.1333 10.218V11.2667ZM25.1333 9.22003L22.75 7.8572C22.6224 7.78396 22.4663 7.78104 22.3356 7.84853L19.2127 9.46627L15.4037 7.00266C15.2648 6.91296 15.0869 6.91004 14.9451 6.9953L11.2667 9.2014V3.46666H25.1333V9.22003Z" fill="currentColor" />
<path d="M20.5833 7.36667C21.421 7.36667 22.1 6.68764 22.1 5.85C22.1 5.01237 21.421 4.33334 20.5833 4.33334C19.7457 4.33334 19.0667 5.01237 19.0667 5.85C19.0667 6.68764 19.7457 7.36667 20.5833 7.36667ZM20.5833 5.2C20.9423 5.2 21.2333 5.49099 21.2333 5.85C21.2333 6.20902 20.9423 6.5 20.5833 6.5C20.2243 6.5 19.9333 6.20902 19.9333 5.85C19.9333 5.49099 20.2243 5.2 20.5833 5.2Z" fill="currentColor" />
<path d="M4.33334 14.3V19.5C4.33334 19.7394 4.52726 19.9333 4.76668 19.9333H15.6C15.8394 19.9333 16.0333 19.7394 16.0333 19.5V14.3C16.0333 14.0606 15.8394 13.8667 15.6 13.8667H4.76668C4.52726 13.8667 4.33334 14.0606 4.33334 14.3ZM5.20001 14.7333H15.1667V19.0667H5.20001V14.7333Z" fill="currentColor" />
<path d="M6.06667 15.6H7.8V16.4667H6.06667V15.6Z" fill="currentColor" />
<path d="M8.66667 15.6H12.5667V16.4667H8.66667V15.6Z" fill="currentColor" />
<path d="M13.4333 15.6H14.3V16.4667H13.4333V15.6Z" fill="currentColor" />
<path d="M6.06667 17.3333H11.2667V18.2H6.06667V17.3333Z" fill="currentColor" />
<path d="M12.1333 17.3333H14.3V18.2H12.1333V17.3333Z" fill="currentColor" />
<path d="M4.33334 1.73334H5.20001V2.6H4.33334V1.73334Z" fill="currentColor" />
<path d="M6.06667 1.73334H6.93333V2.6H6.06667V1.73334Z" fill="currentColor" />
<path d="M7.8 1.73334H8.66667V2.6H7.8V1.73334Z" fill="currentColor" />
<path d="M4.33334 3.46667H9.53334V4.33334H4.33334V3.46667Z" fill="currentColor" />
<path d="M25.5667 15.6H17.3333C17.0939 15.6 16.9 15.7939 16.9 16.0333V21.2333C16.9 21.4728 17.0939 21.6667 17.3333 21.6667H25.5667C25.8061 21.6667 26 21.4728 26 21.2333V16.0333C26 15.7939 25.8061 15.6 25.5667 15.6ZM25.1333 20.8H17.7667V16.4667H25.1333V20.8Z" fill="currentColor" />
<path d="M18.6333 17.3333H19.5V18.2H18.6333V17.3333Z" fill="currentColor" />
<path d="M18.6333 19.0667H19.5V19.9333H18.6333V19.0667Z" fill="currentColor" />
<path d="M20.3667 17.3333H24.2667V18.2H20.3667V17.3333Z" fill="currentColor" />
<path d="M20.3667 19.0667H24.2667V19.9333H20.3667V19.0667Z" fill="currentColor" />
<path d="M22.5333 13H23.4V14.7333H22.5333V13Z" fill="currentColor" />
</svg>
